<svg width="62" height="62" viewBox="0 0 62 62" fill="none" xmlns="http://www.w3.org/2000/svg">
<circle cx="31" cy="31" r="31" fill="#18093A"/>
<path d="M48.0228 24H14.8762C13.8339 24 13 24.8339 13 25.8762V35.2573C13 36.2997 13.8339 37.1335 14.8762 37.1335H48.0228C49.0651 37.1335 49.899 36.2997 49.899 35.2573V25.8762C49.899 24.8339 49.013 24 48.0228 24ZM20.2443 34.4756C18.1075 34.4756 16.3355 32.7036 16.3355 30.5668C16.3355 28.43 18.1075 26.658 20.2443 26.658C22.3811 26.658 24.1531 28.43 24.1531 30.5668C24.1531 32.7036 22.3811 34.4756 20.2443 34.4756ZM31.4495 34.4756C29.3127 34.4756 27.5407 32.7036 27.5407 30.5668C27.5407 28.43 29.3127 26.658 31.4495 26.658C33.5863 26.658 35.3583 28.43 35.3583 30.5668C35.3583 32.7557 33.5863 34.4756 31.4495 34.4756ZM42.4983 34.4756C40.3615 34.4756 38.5896 32.7036 38.5896 30.5668C38.5896 28.43 40.3615 26.658 42.4983 26.658C44.6351 26.658 46.4071 28.43 46.4071 30.5668C46.4071 32.7557 44.6351 34.4756 42.4983 34.4756Z" fill="white"/>
<path d="M16.0215 36.6123V39.9999L22.2234 36.6123" fill="white"/>
</svg>